<?xml version="1.0" encoding="UTF-8"?>
<svg version="1.1" xmlns="http://www.w3.org/2000/svg" width="415" height="415">
<path d="M0 0 C136.95 0 273.9 0 415 0 C415 136.95 415 273.9 415 415 C278.05 415 141.1 415 0 415 C0 278.05 0 141.1 0 0 Z " fill="transparent" transform="translate(0,0)"/>
<path d="M0 0 C57.4139113 -0.16121214 57.4139113 -0.16121214 81.54101562 -0.1953125 C87.05314176 -0.20314258 92.56526744 -0.21122411 98.07739258 -0.21972656 C98.76813427 -0.22078156 99.45887596 -0.22183655 100.17054921 -0.22292352 C111.28472774 -0.24026436 122.39882249 -0.27176807 133.51295153 -0.30861118 C144.94086004 -0.34617515 156.36870095 -0.36796938 167.796673 -0.37635398 C174.20642365 -0.3815467 180.6159851 -0.39366201 187.02567482 -0.42292023 C193.07245929 -0.45029535 199.11897861 -0.45840073 205.16581917 -0.45243073 C207.37189429 -0.45352115 209.57797932 -0.46134205 211.7840004 -0.4768219 C225.39706147 -0.56757044 237.8050187 0.59348187 251 4 C252.02626904 4.26307827 253.05253809 4.52615654 254.1099062 4.79720688 C256.23610393 5.36163604 258.33610158 5.97512704 260.4375 6.625 C261.12908203 6.82867188 261.82066406 7.03234375 262.53320312 7.2421875 C265.84934752 8.23990886 268.97003141 9.3106569 272 11 C272 11.66 272 12.32 272 13 C273.32 13 274.64 13 276 13 C276 13.66 276 14.32 276 15 C276.88429688 15.25910156 277.76859375 15.51820312 278.6796875 15.78515625 C296.88316551 22.44548762 311.28952155 41.61802289 319.375 58.5 C329.41701176 80.33625461 330.46955425 103.76717376 325 127 C324.70996094 128.24716797 324.70996094 128.24716797 324.4140625 129.51953125 C319.71459803 145.9676569 307.12894197 164.87358837 292.30078125 173.5859375 C289.88378451 174.79255943 289.88378451 174.79255943 289 177 C289.5465625 177.10570312 290.093125 177.21140625 290.65625 177.3203125 C307.77765398 182.28551965 320.23821135 198.59329155 328.75 213.1875 C332.57662227 220.48254475 334.35204825 227.99060011 336 236 C336.1750708 236.77303467 336.3501416 237.54606934 336.53051758 238.3425293 C339.61109471 255.7799095 337.95545042 275.17262095 330 291 C329.68804687 291.96808594 329.37609375 292.93617188 329.0546875 293.93359375 C321.71733564 315.26626489 302.40509463 331.10553417 283 341 C275.6998717 344.36647521 268.11347763 346.64171945 260.375 348.75 C259.6116333 348.96100342 258.8482666 349.17200684 258.06176758 349.3894043 C246.09870732 352.49982549 233.85237031 352.13997555 221.58520508 352.11352539 C219.74124147 352.11324288 217.89727775 352.11340249 216.05331421 352.1139679 C211.0768416 352.11425339 206.10039337 352.10839677 201.1239264 352.10139394 C195.91226467 352.0951191 190.7006023 352.09455334 185.48893738 352.09336853 C175.63303465 352.09026736 165.7771431 352.08207039 155.92124528 352.07201904 C144.69508679 352.06082013 133.46892776 352.05533795 122.24276507 352.05032361 C99.16183577 352.03988671 76.08092177 352.02155639 53 352 C53 364.21 53 376.42 53 389 C34.52 389 16.04 389 -3 389 C-3.020625 382.565 -3.04125 376.13 -3.0625 369.5 C-3.071604 367.58767578 -3.08070801 365.67535156 -3.09008789 363.70507812 C-3.12799249 348.828825 -2.81567208 333.96372471 -2.49389648 319.09179688 C-2.44606827 316.84552207 -2.3983355 314.59924522 -2.35070038 312.35296631 C-2.23489995 306.90195361 -2.11792389 301.45096715 -2 296 C-0.2581639 295.99503478 -0.2581639 295.99503478 1.51886082 295.98996925 C29.13647329 295.91080691 56.7540382 295.82153271 84.37157768 295.71994839 C87.77709644 295.70743079 91.18261551 295.69499782 94.58813477 295.68261719 C95.60502303 295.6789182 95.60502303 295.6789182 96.6424545 295.67514448 C107.59307011 295.63551239 118.54369592 295.60272299 129.49434108 295.57250018 C140.74597682 295.54129293 151.99756947 295.50249995 163.2491588 295.45720994 C169.56256329 295.43203427 175.87593775 295.41022686 182.18937874 295.39665604 C188.14092465 295.38375433 194.09236709 295.36161363 200.04385567 295.33261681 C202.21933366 295.32360408 204.39482828 295.31786568 206.57032394 295.31578636 C218.24227915 295.30264125 229.47104348 294.88493144 241 293 C242.5624946 292.81245497 244.12499319 292.62494325 245.6875 292.4375 C255.11534275 290.16981813 263.00644916 281.96843219 268 274 C268.556875 273.21625 269.11375 272.4325 269.6875 271.625 C275.25850691 260.48298618 275.70544405 247.96291512 272.375 236.0625 C268.27376945 224.48759844 260.74271768 215.97928007 250 210 C248.43493068 209.27188 246.85070002 208.58353416 245.25 207.9375 C244.47140625 207.61652344 243.6928125 207.29554688 242.890625 206.96484375 C233.22724781 203.73936515 223.97303842 203.69360636 213.91381836 203.68115234 C212.18837011 203.67184295 210.46292633 203.66167278 208.73748779 203.65071106 C204.07495574 203.62351101 199.41245373 203.6082914 194.74986339 203.59528303 C189.86914183 203.57960859 184.98848123 203.55283219 180.10780334 203.5272522 C170.87518341 203.48054061 161.6425519 203.44375969 152.4098745 203.41057932 C141.89471321 203.372304 131.37961325 203.32290805 120.86450374 203.27259517 C99.24304223 203.16938866 77.62155475 203.0815595 56 203 C56 216.53 56 230.06 56 244 C37.52 244 19.04 244 0 244 C0 212.98 0 181.96 0 150 C6.71754639 149.9906543 13.43509277 149.98130859 20.35620117 149.97167969 C42.55231052 149.93791082 64.74832731 149.88256281 86.94436169 149.81609726 C89.62591212 149.8081461 92.30746279 149.80027974 94.98901367 149.79248047 C95.65550135 149.7905391 96.32198902 149.78859772 97.00867329 149.78659752 C107.7795856 149.75563396 118.55047664 149.73861268 129.32142504 149.72680578 C140.38550064 149.71436487 151.4494615 149.68650274 162.51346761 149.64538693 C168.72289042 149.62279504 174.93215498 149.60708797 181.14162254 149.60811615 C186.99312063 149.60886408 192.84426919 149.59085916 198.6956768 149.55883217 C200.83651382 149.55035419 202.97739014 149.54856885 205.11823654 149.55419731 C222.74444613 149.59434464 239.61161779 147.66196045 253.1171875 135.00390625 C262.34494006 125.18266753 265.50172556 115.4089107 265.35180664 102.05981445 C264.92723055 89.68834284 261.74030696 80.67116755 253.6875 71.3125 C250.6772643 68.72229719 247.52310895 66.57114439 244.18359375 64.4296875 C242 63 242 63 240.25020027 61.51442432 C231.20941929 55.42981985 217.48476922 56.55589692 206.98876953 56.56762695 C205.33154582 56.55858739 203.67432874 56.54825488 202.01712036 56.53674316 C197.56352779 56.50940441 193.11006287 56.49992046 188.65639734 56.49388909 C183.98522641 56.48444457 179.3141486 56.45823675 174.64303589 56.43388367 C165.81786175 56.39038102 156.99270585 56.3617347 148.16745746 56.33856028 C138.11164728 56.31142109 128.05593154 56.2675153 118.00018907 56.22227156 C97.33349706 56.12965802 76.66681395 56.06008374 56 56 C56 72.5 56 89 56 106 C37.52 106 19.04 106 0 106 C0 71.02 0 36.04 0 0 Z " fill="#000000" transform="translate(45,17)"/>

</svg>
